<svg xmlns="http://www.w3.org/2000/svg" width="26" height="26" viewBox="0 0 26 26">
  <path fill="#FFF" fill-rule="evenodd" d="M13 21a1 1 0 0 1 1 1v3a1 1 0 1 1-2 0v-3a1 1 0 0 1 1-1zm-5.66-2.34a1 1 0 0 1 0 1.41L5.22 22.2a1 1 0 0 1-1.41-1.41l2.12-2.12a1 1 0 0 1 1.41 0zm12.73 0 2.12 2.12a1 1 0 0 1-1.41 1.41l-2.12-2.12a1 1 0 0 1 1.41-1.41zM13 8a5 5 0 1 1 0 10 5 5 0 0 1 0-10zm12 4a1 1 0 1 1 0 2h-3a1 1 0 1 1 0-2h3zM4 12a1 1 0 1 1 0 2H1a1 1 0 1 1 0-2h3zm18.2-8.2a1 1 0 0 1 0 1.42l-2.13 2.12a1 1 0 0 1-1.41-1.41l2.12-2.12a1 1 0 0 1 1.41 0zm-16.98 0 2.12 2.13a1 1 0 0 1-1.41 1.41L3.81 5.22a1 1 0 0 1 1.41-1.41zM13 0a1 1 0 0 1 1 1v3a1 1 0 1 1-2 0V1a1 1 0 0 1 1-1z"/>
</svg>